REM DIRINDEX 1\2,1\4,1\5,1\6,1\7,1\3\8,1\3\9,1\3\10
REM DIRNAME folder01,folder02,folder03,folder04,folder05,folder06,folder07,folder08,folder09,folder10
TITLE ""
FILE "DB4500_5th_5C_15.mp3" MP3
  TRACK 01 AUDIO
    TITLE "8:cjc113_3918"
    INDEX 01 00:00:00
  TRACK 02 AUDIO
    TITLE "0:"
    INDEX 01 00:01:11
  TRACK 03 AUDIO
    TITLE "9:cjc113_3919"
    INDEX 01 00:01:22
  TRACK 04 AUDIO
    TITLE "0:"
    INDEX 01 00:03:41
  TRACK 05 AUDIO
    TITLE "10:cjc113_3920"
    INDEX 01 00:03:51
  TRACK 06 AUDIO
    TITLE "0:"
    INDEX 01 00:07:17
  TRACK 07 AUDIO
    TITLE "8:cjc113_3921"
    INDEX 01 00:07:37
  TRACK 08 AUDIO
    TITLE "0:"
    INDEX 01 00:08:62
  TRACK 09 AUDIO
    TITLE "9:cjc113_3922"
    INDEX 01 00:08:73
  TRACK 10 AUDIO
    TITLE "0:"
    INDEX 01 00:10:41
  TRACK 11 AUDIO
    TITLE "10:cjc113_3923"
    INDEX 01 00:10:51
  TRACK 12 AUDIO
    TITLE "0:"
    INDEX 01 00:13:37
  TRACK 13 AUDIO
    TITLE "8:cjc113_3924"
    INDEX 01 00:13:69
  TRACK 14 AUDIO
    TITLE "0:"
    INDEX 01 00:15:05
  TRACK 15 AUDIO
    TITLE "9:cjc113_3925"
    INDEX 01 00:15:13
  TRACK 16 AUDIO
    TITLE "0:"
    INDEX 01 00:16:61
  TRACK 17 AUDIO
    TITLE "10:cjc113_3926"
    INDEX 01 00:16:69
  TRACK 18 AUDIO
    TITLE "0:"
    INDEX 01 00:19:26
  TRACK 19 AUDIO
    TITLE "8:cjc113_3927"
    INDEX 01 00:19:56
  TRACK 20 AUDIO
    TITLE "0:"
    INDEX 01 00:20:65
  TRACK 21 AUDIO
    TITLE "9:cjc113_3928"
    INDEX 01 00:21:00
  TRACK 22 AUDIO
    TITLE "0:"
    INDEX 01 00:22:34
  TRACK 23 AUDIO
    TITLE "10:cjc113_3929"
    INDEX 01 00:22:42
  TRACK 24 AUDIO
    TITLE "0:"
    INDEX 01 00:25:17
  TRACK 25 AUDIO
    TITLE "8:cjc113_3930"
    INDEX 01 00:25:48
  TRACK 26 AUDIO
    TITLE "0:"
    INDEX 01 00:26:66
  TRACK 27 AUDIO
    TITLE "9:cjc113_3931"
    INDEX 01 00:26:73
  TRACK 28 AUDIO
    TITLE "0:"
    INDEX 01 00:28:08
  TRACK 29 AUDIO
    TITLE "10:cjc113_3932"
    INDEX 01 00:28:19
  TRACK 30 AUDIO
    TITLE "0:"
    INDEX 01 00:30:57
  TRACK 31 AUDIO
    TITLE "8:cjc113_3933"
    INDEX 01 00:31:12
  TRACK 32 AUDIO
    TITLE "0:"
    INDEX 01 00:32:31
  TRACK 33 AUDIO
    TITLE "9:cjc113_3934"
    INDEX 01 00:32:41
  TRACK 34 AUDIO
    TITLE "0:"
    INDEX 01 00:33:50
  TRACK 35 AUDIO
    TITLE "10:cjc113_3935"
    INDEX 01 00:33:58
  TRACK 36 AUDIO
    TITLE "0:"
    INDEX 01 00:37:14
  TRACK 37 AUDIO
    TITLE "8:cjc113_3936"
    INDEX 01 00:37:46
  TRACK 38 AUDIO
    TITLE "0:"
    INDEX 01 00:38:71
  TRACK 39 AUDIO
    TITLE "9:cjc113_3937"
    INDEX 01 00:39:07
  TRACK 40 AUDIO
    TITLE "0:"
    INDEX 01 00:40:38
  TRACK 41 AUDIO
    TITLE "10:cjc113_3938"
    INDEX 01 00:40:46
  TRACK 42 AUDIO
    TITLE "0:"
    INDEX 01 00:44:60
  TRACK 43 AUDIO
    TITLE "8:cjc113_3939"
    INDEX 01 00:45:16
  TRACK 44 AUDIO
    TITLE "0:"
    INDEX 01 00:46:29
  TRACK 45 AUDIO
    TITLE "9:cjc113_3940"
    INDEX 01 00:46:39
  TRACK 46 AUDIO
    TITLE "0:"
    INDEX 01 00:47:58
  TRACK 47 AUDIO
    TITLE "10:cjc113_3941"
    INDEX 01 00:47:66
  TRACK 48 AUDIO
    TITLE "0:"
    INDEX 01 00:51:26
  TRACK 49 AUDIO
    TITLE "8:cjc113_3942"
    INDEX 01 00:51:60
  TRACK 50 AUDIO
    TITLE "0:"
    INDEX 01 00:52:65
  TRACK 51 AUDIO
    TITLE "9:cjc113_3943"
    INDEX 01 00:53:04
  TRACK 52 AUDIO
    TITLE "0:"
    INDEX 01 00:54:25
  TRACK 53 AUDIO
    TITLE "10:cjc113_3944"
    INDEX 01 00:54:32
  TRACK 54 AUDIO
    TITLE "0:"
    INDEX 01 00:58:32
  TRACK 55 AUDIO
    TITLE "8:cjc113_3945"
    INDEX 01 00:58:66
  TRACK 56 AUDIO
    TITLE "0:"
    INDEX 01 01:00:02
  TRACK 57 AUDIO
    TITLE "9:cjc113_3946"
    INDEX 01 01:00:12
  TRACK 58 AUDIO
    TITLE "0:"
    INDEX 01 01:01:44
  TRACK 59 AUDIO
    TITLE "10:cjc113_3947"
    INDEX 01 01:01:50
  TRACK 60 AUDIO
    TITLE "0:"
    INDEX 01 01:04:41
  TRACK 61 AUDIO
    TITLE "8:cjc113_3948"
    INDEX 01 01:04:74
  TRACK 62 AUDIO
    TITLE "0:"
    INDEX 01 01:06:16
  TRACK 63 AUDIO
    TITLE "9:cjc113_3949"
    INDEX 01 01:06:24
  TRACK 64 AUDIO
    TITLE "0:"
    INDEX 01 01:07:37
  TRACK 65 AUDIO
    TITLE "10:cjc113_3950"
    INDEX 01 01:07:45
  TRACK 66 AUDIO
    TITLE "0:"
    INDEX 01 01:11:51
  TRACK 67 AUDIO
    TITLE "8:cjc113_3951"
    INDEX 01 01:12:11
  TRACK 68 AUDIO
    TITLE "0:"
    INDEX 01 01:13:08
  TRACK 69 AUDIO
    TITLE "9:cjc113_3952"
    INDEX 01 01:13:18
  TRACK 70 AUDIO
    TITLE "0:"
    INDEX 01 01:14:17
  TRACK 71 AUDIO
    TITLE "10:cjc113_3953"
    INDEX 01 01:14:23
  TRACK 72 AUDIO
    TITLE "0:"
    INDEX 01 01:17:71
